<svg xmlns="http://www.w3.org/2000/svg" viewBox="0 0 1920 1080" font-family="'Segoe UI', system-ui, sans-serif">
  <defs>
    <linearGradient id="bg" x1="0" y1="0" x2="1" y2="1">
      <stop offset="0" stop-color="#0d1117"/>
      <stop offset="1" stop-color="#161b22"/>
    </linearGradient>
    <filter id="card" x="-5%" y="-5%" width="110%" height="110%">
      <feDropShadow dx="0" dy="4" stdDeviation="8" flood-color="#000" flood-opacity="0.4"/>
    </filter>
  </defs>

  <rect width="1920" height="1080" fill="url(#bg)"/>

  <text x="80" y="90" fill="#f0f6fc" font-size="46" font-weight="700">Three Cohorts — and What Each One Needs</text>
  <text x="80" y="130" fill="#8b949e" font-size="22">Pacing, exercise selection, and pairing should follow these groupings. Numbers are group averages.</text>
  <line x1="80" y1="155" x2="1840" y2="155" stroke="#30363d" stroke-width="2"/>

  <!-- 3 cohort cards -->
  <!-- 🥇 Most Advanced -->
  <g transform="translate(80,200)" filter="url(#card)">
    <rect width="580" height="640" rx="18" fill="#161b22" stroke="#3fb950" stroke-width="2"/>
    <rect width="580" height="80" rx="18" fill="#3fb950"/>
    <rect y="60" width="580" height="20" fill="#3fb950"/>
    <text x="30" y="50" fill="#0d1117" font-size="28" font-weight="700">🥇 Most Advanced</text>
    <text x="550" y="50" text-anchor="end" fill="#0d1117" font-size="28" font-weight="700">8 people</text>

    <text x="30" y="125" fill="#f0f6fc" font-size="56" font-weight="700">62.0<tspan font-size="22" fill="#8b949e"> familiarity</tspan></text>
    <text x="30" y="160" fill="#8b949e" font-size="14">#6 · #9 · #24 · #1 · #11 · #7 · #23 · #2</text>

    <!-- Mini metrics -->
    <g transform="translate(30,195)" font-size="15" fill="#c9d1d9">
      <g><text y="14">Copilot use (Q4)</text><text x="510" y="14" text-anchor="end" fill="#3fb950" font-weight="700">3.75/4</text><rect y="22" width="510" height="10" rx="3" fill="#21262d"/><rect y="22" width="478" height="10" rx="3" fill="#3fb950"/></g>
      <g transform="translate(0,50)"><text y="14">Advanced features (Q7)</text><text x="510" y="14" text-anchor="end" fill="#3fb950" font-weight="700">3.21/5</text><rect y="22" width="510" height="10" rx="3" fill="#21262d"/><rect y="22" width="327" height="10" rx="3" fill="#3fb950"/></g>
      <g transform="translate(0,100)"><text y="14">Prompt quality (Q8)</text><text x="510" y="14" text-anchor="end" fill="#3fb950" font-weight="700">3.75/5</text><rect y="22" width="510" height="10" rx="3" fill="#21262d"/><rect y="22" width="382" height="10" rx="3" fill="#3fb950"/></g>
      <g transform="translate(0,150)"><text y="14">SDLC breadth (Q14)</text><text x="510" y="14" text-anchor="end" fill="#3fb950" font-weight="700">4.88/7</text><rect y="22" width="510" height="10" rx="3" fill="#21262d"/><rect y="22" width="356" height="10" rx="3" fill="#3fb950"/></g>
      <g transform="translate(0,200)"><text y="14">Data-flow knowledge (Q12)</text><text x="510" y="14" text-anchor="end" fill="#d29922" font-weight="700">2.88/4</text><rect y="22" width="510" height="10" rx="3" fill="#21262d"/><rect y="22" width="367" height="10" rx="3" fill="#d29922"/></g>
    </g>

    <text x="30" y="490" fill="#3fb950" font-size="18" font-weight="700">FOCUS FOR THIS COHORT</text>
    <g transform="translate(30,505)" font-size="15" fill="#c9d1d9">
      <text y="25">▸ Agent Mode autonomy &amp; safe handoffs</text>
      <text y="55">▸ Designing custom instructions / prompt-file libraries</text>
      <text y="85">▸ Model selection trade-offs (cost / latency / quality)</text>
      <text y="115">▸ Lead governance &amp; mentor other cohorts</text>
    </g>
  </g>

  <!-- 🥈 More Advanced -->
  <g transform="translate(670,200)" filter="url(#card)">
    <rect width="580" height="640" rx="18" fill="#161b22" stroke="#58a6ff" stroke-width="2"/>
    <rect width="580" height="80" rx="18" fill="#58a6ff"/>
    <rect y="60" width="580" height="20" fill="#58a6ff"/>
    <text x="30" y="50" fill="#0d1117" font-size="28" font-weight="700">🥈 More Advanced</text>
    <text x="550" y="50" text-anchor="end" fill="#0d1117" font-size="28" font-weight="700">10 people</text>

    <text x="30" y="125" fill="#f0f6fc" font-size="56" font-weight="700">43.5<tspan font-size="22" fill="#8b949e"> familiarity</tspan></text>
    <text x="30" y="160" fill="#8b949e" font-size="14">#28 · #27 · #25 · #12 · #13 · #4 · #3 · #20 · #10 · #15</text>

    <g transform="translate(30,195)" font-size="15" fill="#c9d1d9">
      <g><text y="14">Copilot use (Q4)</text><text x="510" y="14" text-anchor="end" fill="#58a6ff" font-weight="700">3.40/4</text><rect y="22" width="510" height="10" rx="3" fill="#21262d"/><rect y="22" width="434" height="10" rx="3" fill="#58a6ff"/></g>
      <g transform="translate(0,50)"><text y="14">Advanced features (Q7)</text><text x="510" y="14" text-anchor="end" fill="#d29922" font-weight="700">2.03/5</text><rect y="22" width="510" height="10" rx="3" fill="#21262d"/><rect y="22" width="207" height="10" rx="3" fill="#d29922"/></g>
      <g transform="translate(0,100)"><text y="14">Prompt quality (Q8)</text><text x="510" y="14" text-anchor="end" fill="#58a6ff" font-weight="700">3.30/5</text><rect y="22" width="510" height="10" rx="3" fill="#21262d"/><rect y="22" width="337" height="10" rx="3" fill="#58a6ff"/></g>
      <g transform="translate(0,150)"><text y="14">SDLC breadth (Q14)</text><text x="510" y="14" text-anchor="end" fill="#58a6ff" font-weight="700">3.70/7</text><rect y="22" width="510" height="10" rx="3" fill="#21262d"/><rect y="22" width="270" height="10" rx="3" fill="#58a6ff"/></g>
      <g transform="translate(0,200)"><text y="14">Data-flow knowledge (Q12)</text><text x="510" y="14" text-anchor="end" fill="#d29922" font-weight="700">2.40/4</text><rect y="22" width="510" height="10" rx="3" fill="#21262d"/><rect y="22" width="306" height="10" rx="3" fill="#d29922"/></g>
    </g>

    <text x="30" y="490" fill="#58a6ff" font-size="18" font-weight="700">FOCUS FOR THIS COHORT</text>
    <g transform="translate(30,505)" font-size="15" fill="#c9d1d9">
      <text y="25">▸ Custom Instructions, Prompt files, Model switching</text>
      <text y="55">▸ Tighten prompt frameworks (Task / Context / Constraints)</text>
      <text y="85">▸ Hands-on Agent Mode &amp; Copilot Edits labs</text>
      <text y="115">▸ Security-aware review checklists</text>
    </g>
  </g>

  <!-- 🥉 Basics -->
  <g transform="translate(1260,200)" filter="url(#card)">
    <rect width="580" height="640" rx="18" fill="#161b22" stroke="#d29922" stroke-width="2"/>
    <rect width="580" height="80" rx="18" fill="#d29922"/>
    <rect y="60" width="580" height="20" fill="#d29922"/>
    <text x="30" y="50" fill="#0d1117" font-size="28" font-weight="700">🥉 Basics</text>
    <text x="550" y="50" text-anchor="end" fill="#0d1117" font-size="28" font-weight="700">10 people</text>

    <text x="30" y="125" fill="#f0f6fc" font-size="56" font-weight="700">19.5<tspan font-size="22" fill="#8b949e"> familiarity</tspan></text>
    <text x="30" y="160" fill="#8b949e" font-size="14">#8 · #19 · #18 · #14 · #16 · #17 · #22 · #21 · #5 · #26</text>

    <g transform="translate(30,195)" font-size="15" fill="#c9d1d9">
      <g><text y="14">Copilot use (Q4)</text><text x="510" y="14" text-anchor="end" fill="#d29922" font-weight="700">2.50/4</text><rect y="22" width="510" height="10" rx="3" fill="#21262d"/><rect y="22" width="319" height="10" rx="3" fill="#d29922"/></g>
      <g transform="translate(0,50)"><text y="14">Advanced features (Q7)</text><text x="510" y="14" text-anchor="end" fill="#f85149" font-weight="700">1.42/5</text><rect y="22" width="510" height="10" rx="3" fill="#21262d"/><rect y="22" width="145" height="10" rx="3" fill="#f85149"/></g>
      <g transform="translate(0,100)"><text y="14">Prompt quality (Q8)</text><text x="510" y="14" text-anchor="end" fill="#f85149" font-weight="700">1.40/5</text><rect y="22" width="510" height="10" rx="3" fill="#21262d"/><rect y="22" width="143" height="10" rx="3" fill="#f85149"/></g>
      <g transform="translate(0,150)"><text y="14">SDLC breadth (Q14)</text><text x="510" y="14" text-anchor="end" fill="#f85149" font-weight="700">0.70/7</text><rect y="22" width="510" height="10" rx="3" fill="#21262d"/><rect y="22" width="51" height="10" rx="3" fill="#f85149"/></g>
      <g transform="translate(0,200)"><text y="14">Data-flow knowledge (Q12)</text><text x="510" y="14" text-anchor="end" fill="#f85149" font-weight="700">1.50/4</text><rect y="22" width="510" height="10" rx="3" fill="#21262d"/><rect y="22" width="191" height="10" rx="3" fill="#f85149"/></g>
    </g>

    <text x="30" y="490" fill="#d29922" font-size="18" font-weight="700">FOCUS FOR THIS COHORT</text>
    <g transform="translate(30,505)" font-size="15" fill="#c9d1d9">
      <text y="25">▸ Foundations: how LLMs work, tokens, hallucinations</text>
      <text y="55">▸ Inline-completion fluency &amp; core slash commands</text>
      <text y="85">▸ Basic prompt structure &amp; iteration</text>
      <text y="115">▸ Responsible-AI primer (data flow, secrets hygiene)</text>
    </g>
  </g>

  <!-- Bottom strip — universal recommendations -->
  <g transform="translate(80,870)" filter="url(#card)">
    <rect width="1760" height="170" rx="18" fill="#161b22" stroke="#30363d"/>
    <text x="30" y="45" fill="#a371f7" font-size="22" font-weight="700">🎯 SHARED THREADS — relevant across every cohort</text>
    <g transform="translate(30,70)" font-size="16" fill="#c9d1d9">
      <g>
        <rect width="420" height="80" rx="10" fill="#21262d" stroke="#30363d"/>
        <text x="20" y="30" fill="#f0f6fc" font-weight="700">The deliberate loop</text>
        <text x="20" y="56" fill="#8b949e">46% have no Think→Prompt→Review→Iterate</text>
        <text x="20" y="74" fill="#8b949e">routine — make it a workshop spine.</text>
      </g>
      <g transform="translate(440,0)">
        <rect width="420" height="80" rx="10" fill="#21262d" stroke="#30363d"/>
        <text x="20" y="30" fill="#f0f6fc" font-weight="700">Responsible AI primer</text>
        <text x="20" y="56" fill="#8b949e">Q12 averages 2.21/4 · everyone benefits from</text>
        <text x="20" y="74" fill="#8b949e">a short data-flow + tier-rules session.</text>
      </g>
      <g transform="translate(880,0)">
        <rect width="420" height="80" rx="10" fill="#21262d" stroke="#30363d"/>
        <text x="20" y="30" fill="#f0f6fc" font-weight="700">Security-aware review</text>
        <text x="20" y="56" fill="#8b949e">Q13 only 1.82/6 categories actively checked —</text>
        <text x="20" y="74" fill="#8b949e">ship a reviewable security checklist.</text>
      </g>
      <g transform="translate(1320,0)">
        <rect width="420" height="80" rx="10" fill="#21262d" stroke="#30363d"/>
        <text x="20" y="30" fill="#f0f6fc" font-weight="700">Pair across cohorts</text>
        <text x="20" y="56" fill="#8b949e">Mix advanced + basics in lab pairings —</text>
        <text x="20" y="74" fill="#8b949e">peer learning lifts both sides.</text>
      </g>
    </g>
  </g>

  <text x="1840" y="1075" text-anchor="end" fill="#484f58" font-size="14">Source: survey/SURVEY_RESULTS.md · n=28</text>
</svg>
