<svg xmlns="http://www.w3.org/2000/svg" viewBox="0 0 1920 1080" role="img">
<defs>
  <linearGradient id="bg" x1="0" y1="0" x2="0" y2="1">
    <stop offset="0%" stop-color="#0d1117"/><stop offset="100%" stop-color="#161b22"/>
  </linearGradient>
  <filter id="card" x="-5%" y="-5%" width="110%" height="115%">
    <feDropShadow dx="0" dy="4" stdDeviation="6" flood-color="#000" flood-opacity="0.35"/>
  </filter>
</defs>
<rect width="1920" height="1080" fill="url(#bg)"/>
<text x="80" y="92" font-family="'Segoe UI', system-ui, sans-serif" font-size="44" font-weight="700" fill="#f0f6fc">Q6 · Copilot Chat commands used</text>
<text x="80" y="138" font-family="'Segoe UI', system-ui, sans-serif" font-size="22" fill="#8b949e">Number of chat commands/slash-commands each participant has tried (out of 7) · color = cohort</text>
<g id="cohort-legend" font-family="'Segoe UI', system-ui, sans-serif">
  <text x="1080" y="170" font-size="16" font-weight="700" fill="#c9d1d9">Cohort color</text>
  <rect x="1210" y="156" width="20" height="20" rx="4" fill="#3fb950"/>
  <text x="1238" y="172" font-size="15" fill="#c9d1d9">Most Advanced</text>
  <rect x="1390" y="156" width="20" height="20" rx="4" fill="#58a6ff"/>
  <text x="1418" y="172" font-size="15" fill="#c9d1d9">More Advanced</text>
  <rect x="1575" y="156" width="20" height="20" rx="4" fill="#f85149"/>
  <text x="1603" y="172" font-size="15" fill="#c9d1d9">Basics</text>
</g>
<rect x="60" y="190" width="1800" height="840" rx="20" fill="#161b22" stroke="#30363d" filter="url(#card)"/>
<line x1="100" y1="940.0" x2="1820" y2="940.0" stroke="#21262d" stroke-width="1"/>
<text x="86" y="945.0" text-anchor="end" font-family="'Segoe UI', system-ui, sans-serif" font-size="16" fill="#8b949e">0</text>
<line x1="100" y1="837.1" x2="1820" y2="837.1" stroke="#21262d" stroke-width="1"/>
<text x="86" y="842.1" text-anchor="end" font-family="'Segoe UI', system-ui, sans-serif" font-size="16" fill="#8b949e">1</text>
<line x1="100" y1="734.3" x2="1820" y2="734.3" stroke="#21262d" stroke-width="1"/>
<text x="86" y="739.3" text-anchor="end" font-family="'Segoe UI', system-ui, sans-serif" font-size="16" fill="#8b949e">2</text>
<line x1="100" y1="631.4" x2="1820" y2="631.4" stroke="#21262d" stroke-width="1"/>
<text x="86" y="636.4" text-anchor="end" font-family="'Segoe UI', system-ui, sans-serif" font-size="16" fill="#8b949e">3</text>
<line x1="100" y1="528.6" x2="1820" y2="528.6" stroke="#21262d" stroke-width="1"/>
<text x="86" y="533.6" text-anchor="end" font-family="'Segoe UI', system-ui, sans-serif" font-size="16" fill="#8b949e">4</text>
<line x1="100" y1="425.7" x2="1820" y2="425.7" stroke="#21262d" stroke-width="1"/>
<text x="86" y="430.7" text-anchor="end" font-family="'Segoe UI', system-ui, sans-serif" font-size="16" fill="#8b949e">5</text>
<line x1="100" y1="322.9" x2="1820" y2="322.9" stroke="#21262d" stroke-width="1"/>
<text x="86" y="327.9" text-anchor="end" font-family="'Segoe UI', system-ui, sans-serif" font-size="16" fill="#8b949e">6</text>
<line x1="100" y1="220.0" x2="1820" y2="220.0" stroke="#21262d" stroke-width="1"/>
<text x="86" y="225.0" text-anchor="end" font-family="'Segoe UI', system-ui, sans-serif" font-size="16" fill="#8b949e">7</text>
<rect x="113.8" y="932.0" width="33.8" height="8" rx="3" fill="#30363d"/>
<text x="130.7" y="924.0" text-anchor="middle" font-family="'Segoe UI', system-ui, sans-serif" font-size="13" fill="#8b949e">0</text>
<text x="130.7" y="968.0" text-anchor="middle" font-family="'Segoe UI', system-ui, sans-serif" font-size="14" fill="#8b949e">#1</text>
<rect x="175.3" y="631.4" width="33.8" height="308.6" rx="4" fill="#3fb950" opacity="0.92"/>
<text x="192.1" y="621.4" text-anchor="middle" font-family="'Segoe UI', system-ui, sans-serif" font-size="16" font-weight="700" fill="#f0f6fc">3</text>
<text x="192.1" y="968.0" text-anchor="middle" font-family="'Segoe UI', system-ui, sans-serif" font-size="14" fill="#8b949e">#2</text>
<rect x="236.7" y="837.1" width="33.8" height="102.9" rx="4" fill="#58a6ff" opacity="0.92"/>
<text x="253.6" y="827.1" text-anchor="middle" font-family="'Segoe UI', system-ui, sans-serif" font-size="16" font-weight="700" fill="#f0f6fc">1</text>
<text x="253.6" y="968.0" text-anchor="middle" font-family="'Segoe UI', system-ui, sans-serif" font-size="14" fill="#8b949e">#3</text>
<rect x="298.1" y="932.0" width="33.8" height="8" rx="3" fill="#30363d"/>
<text x="315.0" y="924.0" text-anchor="middle" font-family="'Segoe UI', system-ui, sans-serif" font-size="13" fill="#8b949e">0</text>
<text x="315.0" y="968.0" text-anchor="middle" font-family="'Segoe UI', system-ui, sans-serif" font-size="14" fill="#8b949e">#4</text>
<rect x="359.5" y="932.0" width="33.8" height="8" rx="3" fill="#30363d"/>
<text x="376.4" y="924.0" text-anchor="middle" font-family="'Segoe UI', system-ui, sans-serif" font-size="13" fill="#8b949e">0</text>
<text x="376.4" y="968.0" text-anchor="middle" font-family="'Segoe UI', system-ui, sans-serif" font-size="14" fill="#8b949e">#5</text>
<rect x="421.0" y="322.9" width="33.8" height="617.1" rx="4" fill="#3fb950" opacity="0.92"/>
<text x="437.9" y="312.9" text-anchor="middle" font-family="'Segoe UI', system-ui, sans-serif" font-size="16" font-weight="700" fill="#f0f6fc">6</text>
<text x="437.9" y="968.0" text-anchor="middle" font-family="'Segoe UI', system-ui, sans-serif" font-size="14" fill="#8b949e">#6</text>
<rect x="482.4" y="932.0" width="33.8" height="8" rx="3" fill="#30363d"/>
<text x="499.3" y="924.0" text-anchor="middle" font-family="'Segoe UI', system-ui, sans-serif" font-size="13" fill="#8b949e">0</text>
<text x="499.3" y="968.0" text-anchor="middle" font-family="'Segoe UI', system-ui, sans-serif" font-size="14" fill="#8b949e">#7</text>
<rect x="543.8" y="837.1" width="33.8" height="102.9" rx="4" fill="#f85149" opacity="0.92"/>
<text x="560.7" y="827.1" text-anchor="middle" font-family="'Segoe UI', system-ui, sans-serif" font-size="16" font-weight="700" fill="#f0f6fc">1</text>
<text x="560.7" y="968.0" text-anchor="middle" font-family="'Segoe UI', system-ui, sans-serif" font-size="14" fill="#8b949e">#8</text>
<rect x="605.2" y="220.0" width="33.8" height="720.0" rx="4" fill="#3fb950" opacity="0.92"/>
<text x="622.1" y="210.0" text-anchor="middle" font-family="'Segoe UI', system-ui, sans-serif" font-size="16" font-weight="700" fill="#f0f6fc">7</text>
<text x="622.1" y="968.0" text-anchor="middle" font-family="'Segoe UI', system-ui, sans-serif" font-size="14" fill="#8b949e">#9</text>
<rect x="666.7" y="932.0" width="33.8" height="8" rx="3" fill="#30363d"/>
<text x="683.6" y="924.0" text-anchor="middle" font-family="'Segoe UI', system-ui, sans-serif" font-size="13" fill="#8b949e">0</text>
<text x="683.6" y="968.0" text-anchor="middle" font-family="'Segoe UI', system-ui, sans-serif" font-size="14" fill="#8b949e">#10</text>
<rect x="728.1" y="631.4" width="33.8" height="308.6" rx="4" fill="#3fb950" opacity="0.92"/>
<text x="745.0" y="621.4" text-anchor="middle" font-family="'Segoe UI', system-ui, sans-serif" font-size="16" font-weight="700" fill="#f0f6fc">3</text>
<text x="745.0" y="968.0" text-anchor="middle" font-family="'Segoe UI', system-ui, sans-serif" font-size="14" fill="#8b949e">#11</text>
<rect x="789.5" y="932.0" width="33.8" height="8" rx="3" fill="#30363d"/>
<text x="806.4" y="924.0" text-anchor="middle" font-family="'Segoe UI', system-ui, sans-serif" font-size="13" fill="#8b949e">0</text>
<text x="806.4" y="968.0" text-anchor="middle" font-family="'Segoe UI', system-ui, sans-serif" font-size="14" fill="#8b949e">#12</text>
<rect x="851.0" y="528.6" width="33.8" height="411.4" rx="4" fill="#58a6ff" opacity="0.92"/>
<text x="867.9" y="518.6" text-anchor="middle" font-family="'Segoe UI', system-ui, sans-serif" font-size="16" font-weight="700" fill="#f0f6fc">4</text>
<text x="867.9" y="968.0" text-anchor="middle" font-family="'Segoe UI', system-ui, sans-serif" font-size="14" fill="#8b949e">#13</text>
<rect x="912.4" y="837.1" width="33.8" height="102.9" rx="4" fill="#f85149" opacity="0.92"/>
<text x="929.3" y="827.1" text-anchor="middle" font-family="'Segoe UI', system-ui, sans-serif" font-size="16" font-weight="700" fill="#f0f6fc">1</text>
<text x="929.3" y="968.0" text-anchor="middle" font-family="'Segoe UI', system-ui, sans-serif" font-size="14" fill="#8b949e">#14</text>
<rect x="973.8" y="837.1" width="33.8" height="102.9" rx="4" fill="#58a6ff" opacity="0.92"/>
<text x="990.7" y="827.1" text-anchor="middle" font-family="'Segoe UI', system-ui, sans-serif" font-size="16" font-weight="700" fill="#f0f6fc">1</text>
<text x="990.7" y="968.0" text-anchor="middle" font-family="'Segoe UI', system-ui, sans-serif" font-size="14" fill="#8b949e">#15</text>
<rect x="1035.2" y="734.3" width="33.8" height="205.7" rx="4" fill="#f85149" opacity="0.92"/>
<text x="1052.1" y="724.3" text-anchor="middle" font-family="'Segoe UI', system-ui, sans-serif" font-size="16" font-weight="700" fill="#f0f6fc">2</text>
<text x="1052.1" y="968.0" text-anchor="middle" font-family="'Segoe UI', system-ui, sans-serif" font-size="14" fill="#8b949e">#16</text>
<rect x="1096.7" y="932.0" width="33.8" height="8" rx="3" fill="#30363d"/>
<text x="1113.6" y="924.0" text-anchor="middle" font-family="'Segoe UI', system-ui, sans-serif" font-size="13" fill="#8b949e">0</text>
<text x="1113.6" y="968.0" text-anchor="middle" font-family="'Segoe UI', system-ui, sans-serif" font-size="14" fill="#8b949e">#17</text>
<rect x="1158.1" y="932.0" width="33.8" height="8" rx="3" fill="#30363d"/>
<text x="1175.0" y="924.0" text-anchor="middle" font-family="'Segoe UI', system-ui, sans-serif" font-size="13" fill="#8b949e">0</text>
<text x="1175.0" y="968.0" text-anchor="middle" font-family="'Segoe UI', system-ui, sans-serif" font-size="14" fill="#8b949e">#18</text>
<rect x="1219.5" y="734.3" width="33.8" height="205.7" rx="4" fill="#f85149" opacity="0.92"/>
<text x="1236.4" y="724.3" text-anchor="middle" font-family="'Segoe UI', system-ui, sans-serif" font-size="16" font-weight="700" fill="#f0f6fc">2</text>
<text x="1236.4" y="968.0" text-anchor="middle" font-family="'Segoe UI', system-ui, sans-serif" font-size="14" fill="#8b949e">#19</text>
<rect x="1281.0" y="932.0" width="33.8" height="8" rx="3" fill="#30363d"/>
<text x="1297.9" y="924.0" text-anchor="middle" font-family="'Segoe UI', system-ui, sans-serif" font-size="13" fill="#8b949e">0</text>
<text x="1297.9" y="968.0" text-anchor="middle" font-family="'Segoe UI', system-ui, sans-serif" font-size="14" fill="#8b949e">#20</text>
<rect x="1342.4" y="932.0" width="33.8" height="8" rx="3" fill="#30363d"/>
<text x="1359.3" y="924.0" text-anchor="middle" font-family="'Segoe UI', system-ui, sans-serif" font-size="13" fill="#8b949e">0</text>
<text x="1359.3" y="968.0" text-anchor="middle" font-family="'Segoe UI', system-ui, sans-serif" font-size="14" fill="#8b949e">#21</text>
<rect x="1403.8" y="932.0" width="33.8" height="8" rx="3" fill="#30363d"/>
<text x="1420.7" y="924.0" text-anchor="middle" font-family="'Segoe UI', system-ui, sans-serif" font-size="13" fill="#8b949e">0</text>
<text x="1420.7" y="968.0" text-anchor="middle" font-family="'Segoe UI', system-ui, sans-serif" font-size="14" fill="#8b949e">#22</text>
<rect x="1465.3" y="631.4" width="33.8" height="308.6" rx="4" fill="#3fb950" opacity="0.92"/>
<text x="1482.1" y="621.4" text-anchor="middle" font-family="'Segoe UI', system-ui, sans-serif" font-size="16" font-weight="700" fill="#f0f6fc">3</text>
<text x="1482.1" y="968.0" text-anchor="middle" font-family="'Segoe UI', system-ui, sans-serif" font-size="14" fill="#8b949e">#23</text>
<rect x="1526.7" y="220.0" width="33.8" height="720.0" rx="4" fill="#3fb950" opacity="0.92"/>
<text x="1543.6" y="210.0" text-anchor="middle" font-family="'Segoe UI', system-ui, sans-serif" font-size="16" font-weight="700" fill="#f0f6fc">7</text>
<text x="1543.6" y="968.0" text-anchor="middle" font-family="'Segoe UI', system-ui, sans-serif" font-size="14" fill="#8b949e">#24</text>
<rect x="1588.1" y="932.0" width="33.8" height="8" rx="3" fill="#30363d"/>
<text x="1605.0" y="924.0" text-anchor="middle" font-family="'Segoe UI', system-ui, sans-serif" font-size="13" fill="#8b949e">0</text>
<text x="1605.0" y="968.0" text-anchor="middle" font-family="'Segoe UI', system-ui, sans-serif" font-size="14" fill="#8b949e">#25</text>
<rect x="1649.5" y="932.0" width="33.8" height="8" rx="3" fill="#30363d"/>
<text x="1666.4" y="924.0" text-anchor="middle" font-family="'Segoe UI', system-ui, sans-serif" font-size="13" fill="#8b949e">0</text>
<text x="1666.4" y="968.0" text-anchor="middle" font-family="'Segoe UI', system-ui, sans-serif" font-size="14" fill="#8b949e">#26</text>
<rect x="1711.0" y="932.0" width="33.8" height="8" rx="3" fill="#30363d"/>
<text x="1727.9" y="924.0" text-anchor="middle" font-family="'Segoe UI', system-ui, sans-serif" font-size="13" fill="#8b949e">0</text>
<text x="1727.9" y="968.0" text-anchor="middle" font-family="'Segoe UI', system-ui, sans-serif" font-size="14" fill="#8b949e">#27</text>
<rect x="1772.4" y="528.6" width="33.8" height="411.4" rx="4" fill="#58a6ff" opacity="0.92"/>
<text x="1789.3" y="518.6" text-anchor="middle" font-family="'Segoe UI', system-ui, sans-serif" font-size="16" font-weight="700" fill="#f0f6fc">4</text>
<text x="1789.3" y="968.0" text-anchor="middle" font-family="'Segoe UI', system-ui, sans-serif" font-size="14" fill="#8b949e">#28</text>
<line x1="100" y1="940" x2="1820" y2="940" stroke="#30363d" stroke-width="2"/>
<text x="100" y="990" font-family="'Segoe UI', system-ui, sans-serif" font-size="16" font-weight="600" fill="#c9d1d9">Items selected</text>
<rect x="260" y="976" width="20" height="20" rx="4" fill="#30363d"/>
<text x="288" y="992" font-family="'Segoe UI', system-ui, sans-serif" font-size="15" fill="#c9d1d9">0 — none</text>
<rect x="394" y="976" width="20" height="20" rx="4" fill="#f85149"/>
<text x="422" y="992" font-family="'Segoe UI', system-ui, sans-serif" font-size="15" fill="#c9d1d9">1-2</text>
<rect x="483" y="976" width="20" height="20" rx="4" fill="#db6d28"/>
<text x="511" y="992" font-family="'Segoe UI', system-ui, sans-serif" font-size="15" fill="#c9d1d9">3-4</text>
<rect x="572" y="976" width="20" height="20" rx="4" fill="#d29922"/>
<text x="600" y="992" font-family="'Segoe UI', system-ui, sans-serif" font-size="15" fill="#c9d1d9">5-6</text>
<rect x="661" y="976" width="20" height="20" rx="4" fill="#3fb950"/>
<text x="689" y="992" font-family="'Segoe UI', system-ui, sans-serif" font-size="15" fill="#c9d1d9">7+</text>
<text x="1840" y="1048" text-anchor="end" font-family="'Segoe UI', system-ui, sans-serif" font-size="16" fill="#484f58">Source: survey/SURVEY_RESULTS.md · n=28</text>
</svg>