<svg xmlns="http://www.w3.org/2000/svg" viewBox="0 0 1920 1080" role="img">
<defs>
  <linearGradient id="bg" x1="0" y1="0" x2="0" y2="1">
    <stop offset="0%" stop-color="#0d1117"/><stop offset="100%" stop-color="#161b22"/>
  </linearGradient>
  <filter id="card" x="-5%" y="-5%" width="110%" height="115%">
    <feDropShadow dx="0" dy="4" stdDeviation="6" flood-color="#000" flood-opacity="0.35"/>
  </filter>
</defs>
<rect width="1920" height="1080" fill="url(#bg)"/>
<text x="80" y="92" font-family="'Segoe UI', system-ui, sans-serif" font-size="44" font-weight="700" fill="#f0f6fc">Q13 · Security checks performed on AI output</text>
<text x="80" y="138" font-family="'Segoe UI', system-ui, sans-serif" font-size="22" fill="#8b949e">Number of actual security checks applied to AI-generated code (out of 6)</text>
<rect x="60" y="190" width="1800" height="840" rx="20" fill="#161b22" stroke="#30363d" filter="url(#card)"/>
<line x1="100" y1="940.0" x2="1820" y2="940.0" stroke="#21262d" stroke-width="1"/>
<text x="86" y="945.0" text-anchor="end" font-family="'Segoe UI', system-ui, sans-serif" font-size="16" fill="#8b949e">0</text>
<line x1="100" y1="820.0" x2="1820" y2="820.0" stroke="#21262d" stroke-width="1"/>
<text x="86" y="825.0" text-anchor="end" font-family="'Segoe UI', system-ui, sans-serif" font-size="16" fill="#8b949e">1</text>
<line x1="100" y1="700.0" x2="1820" y2="700.0" stroke="#21262d" stroke-width="1"/>
<text x="86" y="705.0" text-anchor="end" font-family="'Segoe UI', system-ui, sans-serif" font-size="16" fill="#8b949e">2</text>
<line x1="100" y1="580.0" x2="1820" y2="580.0" stroke="#21262d" stroke-width="1"/>
<text x="86" y="585.0" text-anchor="end" font-family="'Segoe UI', system-ui, sans-serif" font-size="16" fill="#8b949e">3</text>
<line x1="100" y1="460.0" x2="1820" y2="460.0" stroke="#21262d" stroke-width="1"/>
<text x="86" y="465.0" text-anchor="end" font-family="'Segoe UI', system-ui, sans-serif" font-size="16" fill="#8b949e">4</text>
<line x1="100" y1="340.0" x2="1820" y2="340.0" stroke="#21262d" stroke-width="1"/>
<text x="86" y="345.0" text-anchor="end" font-family="'Segoe UI', system-ui, sans-serif" font-size="16" fill="#8b949e">5</text>
<line x1="100" y1="220.0" x2="1820" y2="220.0" stroke="#21262d" stroke-width="1"/>
<text x="86" y="225.0" text-anchor="end" font-family="'Segoe UI', system-ui, sans-serif" font-size="16" fill="#8b949e">6</text>
<rect x="113.8" y="580.0" width="33.8" height="360.0" rx="4" fill="#db6d28" opacity="0.92"/>
<text x="130.7" y="570.0" text-anchor="middle" font-family="'Segoe UI', system-ui, sans-serif" font-size="16" font-weight="700" fill="#f0f6fc">3</text>
<text x="130.7" y="968.0" text-anchor="middle" font-family="'Segoe UI', system-ui, sans-serif" font-size="14" fill="#8b949e">#1</text>
<rect x="175.2" y="580.0" width="33.8" height="360.0" rx="4" fill="#db6d28" opacity="0.92"/>
<text x="192.1" y="570.0" text-anchor="middle" font-family="'Segoe UI', system-ui, sans-serif" font-size="16" font-weight="700" fill="#f0f6fc">3</text>
<text x="192.1" y="968.0" text-anchor="middle" font-family="'Segoe UI', system-ui, sans-serif" font-size="14" fill="#8b949e">#2</text>
<rect x="236.7" y="220.0" width="33.8" height="720.0" rx="4" fill="#d29922" opacity="0.92"/>
<text x="253.6" y="210.0" text-anchor="middle" font-family="'Segoe UI', system-ui, sans-serif" font-size="16" font-weight="700" fill="#f0f6fc">6</text>
<text x="253.6" y="968.0" text-anchor="middle" font-family="'Segoe UI', system-ui, sans-serif" font-size="14" fill="#8b949e">#3</text>
<rect x="298.1" y="932.0" width="33.8" height="8" rx="3" fill="#30363d"/>
<text x="315.0" y="924.0" text-anchor="middle" font-family="'Segoe UI', system-ui, sans-serif" font-size="13" fill="#8b949e">0</text>
<text x="315.0" y="968.0" text-anchor="middle" font-family="'Segoe UI', system-ui, sans-serif" font-size="14" fill="#8b949e">#4</text>
<rect x="359.5" y="932.0" width="33.8" height="8" rx="3" fill="#30363d"/>
<text x="376.4" y="924.0" text-anchor="middle" font-family="'Segoe UI', system-ui, sans-serif" font-size="13" fill="#8b949e">0</text>
<text x="376.4" y="968.0" text-anchor="middle" font-family="'Segoe UI', system-ui, sans-serif" font-size="14" fill="#8b949e">#5</text>
<rect x="420.9" y="460.0" width="33.8" height="480.0" rx="4" fill="#db6d28" opacity="0.92"/>
<text x="437.8" y="450.0" text-anchor="middle" font-family="'Segoe UI', system-ui, sans-serif" font-size="16" font-weight="700" fill="#f0f6fc">4</text>
<text x="437.8" y="968.0" text-anchor="middle" font-family="'Segoe UI', system-ui, sans-serif" font-size="14" fill="#8b949e">#6</text>
<rect x="482.4" y="820.0" width="33.8" height="120.0" rx="4" fill="#f85149" opacity="0.92"/>
<text x="499.3" y="810.0" text-anchor="middle" font-family="'Segoe UI', system-ui, sans-serif" font-size="16" font-weight="700" fill="#f0f6fc">1</text>
<text x="499.3" y="968.0" text-anchor="middle" font-family="'Segoe UI', system-ui, sans-serif" font-size="14" fill="#8b949e">#7</text>
<rect x="543.8" y="932.0" width="33.8" height="8" rx="3" fill="#30363d"/>
<text x="560.7" y="924.0" text-anchor="middle" font-family="'Segoe UI', system-ui, sans-serif" font-size="13" fill="#8b949e">0</text>
<text x="560.7" y="968.0" text-anchor="middle" font-family="'Segoe UI', system-ui, sans-serif" font-size="14" fill="#8b949e">#8</text>
<rect x="605.2" y="460.0" width="33.8" height="480.0" rx="4" fill="#db6d28" opacity="0.92"/>
<text x="622.1" y="450.0" text-anchor="middle" font-family="'Segoe UI', system-ui, sans-serif" font-size="16" font-weight="700" fill="#f0f6fc">4</text>
<text x="622.1" y="968.0" text-anchor="middle" font-family="'Segoe UI', system-ui, sans-serif" font-size="14" fill="#8b949e">#9</text>
<rect x="666.7" y="820.0" width="33.8" height="120.0" rx="4" fill="#f85149" opacity="0.92"/>
<text x="683.6" y="810.0" text-anchor="middle" font-family="'Segoe UI', system-ui, sans-serif" font-size="16" font-weight="700" fill="#f0f6fc">1</text>
<text x="683.6" y="968.0" text-anchor="middle" font-family="'Segoe UI', system-ui, sans-serif" font-size="14" fill="#8b949e">#10</text>
<rect x="728.1" y="340.0" width="33.8" height="600.0" rx="4" fill="#d29922" opacity="0.92"/>
<text x="745.0" y="330.0" text-anchor="middle" font-family="'Segoe UI', system-ui, sans-serif" font-size="16" font-weight="700" fill="#f0f6fc">5</text>
<text x="745.0" y="968.0" text-anchor="middle" font-family="'Segoe UI', system-ui, sans-serif" font-size="14" fill="#8b949e">#11</text>
<rect x="789.5" y="580.0" width="33.8" height="360.0" rx="4" fill="#db6d28" opacity="0.92"/>
<text x="806.4" y="570.0" text-anchor="middle" font-family="'Segoe UI', system-ui, sans-serif" font-size="16" font-weight="700" fill="#f0f6fc">3</text>
<text x="806.4" y="968.0" text-anchor="middle" font-family="'Segoe UI', system-ui, sans-serif" font-size="14" fill="#8b949e">#12</text>
<rect x="851.0" y="820.0" width="33.8" height="120.0" rx="4" fill="#f85149" opacity="0.92"/>
<text x="867.9" y="810.0" text-anchor="middle" font-family="'Segoe UI', system-ui, sans-serif" font-size="16" font-weight="700" fill="#f0f6fc">1</text>
<text x="867.9" y="968.0" text-anchor="middle" font-family="'Segoe UI', system-ui, sans-serif" font-size="14" fill="#8b949e">#13</text>
<rect x="912.4" y="820.0" width="33.8" height="120.0" rx="4" fill="#f85149" opacity="0.92"/>
<text x="929.3" y="810.0" text-anchor="middle" font-family="'Segoe UI', system-ui, sans-serif" font-size="16" font-weight="700" fill="#f0f6fc">1</text>
<text x="929.3" y="968.0" text-anchor="middle" font-family="'Segoe UI', system-ui, sans-serif" font-size="14" fill="#8b949e">#14</text>
<rect x="973.8" y="932.0" width="33.8" height="8" rx="3" fill="#30363d"/>
<text x="990.7" y="924.0" text-anchor="middle" font-family="'Segoe UI', system-ui, sans-serif" font-size="13" fill="#8b949e">0</text>
<text x="990.7" y="968.0" text-anchor="middle" font-family="'Segoe UI', system-ui, sans-serif" font-size="14" fill="#8b949e">#15</text>
<rect x="1035.2" y="932.0" width="33.8" height="8" rx="3" fill="#30363d"/>
<text x="1052.1" y="924.0" text-anchor="middle" font-family="'Segoe UI', system-ui, sans-serif" font-size="13" fill="#8b949e">0</text>
<text x="1052.1" y="968.0" text-anchor="middle" font-family="'Segoe UI', system-ui, sans-serif" font-size="14" fill="#8b949e">#16</text>
<rect x="1096.7" y="700.0" width="33.8" height="240.0" rx="4" fill="#f85149" opacity="0.92"/>
<text x="1113.6" y="690.0" text-anchor="middle" font-family="'Segoe UI', system-ui, sans-serif" font-size="16" font-weight="700" fill="#f0f6fc">2</text>
<text x="1113.6" y="968.0" text-anchor="middle" font-family="'Segoe UI', system-ui, sans-serif" font-size="14" fill="#8b949e">#17</text>
<rect x="1158.1" y="932.0" width="33.8" height="8" rx="3" fill="#30363d"/>
<text x="1175.0" y="924.0" text-anchor="middle" font-family="'Segoe UI', system-ui, sans-serif" font-size="13" fill="#8b949e">0</text>
<text x="1175.0" y="968.0" text-anchor="middle" font-family="'Segoe UI', system-ui, sans-serif" font-size="14" fill="#8b949e">#18</text>
<rect x="1219.5" y="932.0" width="33.8" height="8" rx="3" fill="#30363d"/>
<text x="1236.4" y="924.0" text-anchor="middle" font-family="'Segoe UI', system-ui, sans-serif" font-size="13" fill="#8b949e">0</text>
<text x="1236.4" y="968.0" text-anchor="middle" font-family="'Segoe UI', system-ui, sans-serif" font-size="14" fill="#8b949e">#19</text>
<rect x="1281.0" y="580.0" width="33.8" height="360.0" rx="4" fill="#db6d28" opacity="0.92"/>
<text x="1297.9" y="570.0" text-anchor="middle" font-family="'Segoe UI', system-ui, sans-serif" font-size="16" font-weight="700" fill="#f0f6fc">3</text>
<text x="1297.9" y="968.0" text-anchor="middle" font-family="'Segoe UI', system-ui, sans-serif" font-size="14" fill="#8b949e">#20</text>
<rect x="1342.4" y="932.0" width="33.8" height="8" rx="3" fill="#30363d"/>
<text x="1359.3" y="924.0" text-anchor="middle" font-family="'Segoe UI', system-ui, sans-serif" font-size="13" fill="#8b949e">0</text>
<text x="1359.3" y="968.0" text-anchor="middle" font-family="'Segoe UI', system-ui, sans-serif" font-size="14" fill="#8b949e">#21</text>
<rect x="1403.8" y="932.0" width="33.8" height="8" rx="3" fill="#30363d"/>
<text x="1420.7" y="924.0" text-anchor="middle" font-family="'Segoe UI', system-ui, sans-serif" font-size="13" fill="#8b949e">0</text>
<text x="1420.7" y="968.0" text-anchor="middle" font-family="'Segoe UI', system-ui, sans-serif" font-size="14" fill="#8b949e">#22</text>
<rect x="1465.3" y="700.0" width="33.8" height="240.0" rx="4" fill="#f85149" opacity="0.92"/>
<text x="1482.2" y="690.0" text-anchor="middle" font-family="'Segoe UI', system-ui, sans-serif" font-size="16" font-weight="700" fill="#f0f6fc">2</text>
<text x="1482.2" y="968.0" text-anchor="middle" font-family="'Segoe UI', system-ui, sans-serif" font-size="14" fill="#8b949e">#23</text>
<rect x="1526.7" y="700.0" width="33.8" height="240.0" rx="4" fill="#f85149" opacity="0.92"/>
<text x="1543.6" y="690.0" text-anchor="middle" font-family="'Segoe UI', system-ui, sans-serif" font-size="16" font-weight="700" fill="#f0f6fc">2</text>
<text x="1543.6" y="968.0" text-anchor="middle" font-family="'Segoe UI', system-ui, sans-serif" font-size="14" fill="#8b949e">#24</text>
<rect x="1588.1" y="580.0" width="33.8" height="360.0" rx="4" fill="#db6d28" opacity="0.92"/>
<text x="1605.0" y="570.0" text-anchor="middle" font-family="'Segoe UI', system-ui, sans-serif" font-size="16" font-weight="700" fill="#f0f6fc">3</text>
<text x="1605.0" y="968.0" text-anchor="middle" font-family="'Segoe UI', system-ui, sans-serif" font-size="14" fill="#8b949e">#25</text>
<rect x="1649.5" y="932.0" width="33.8" height="8" rx="3" fill="#30363d"/>
<text x="1666.4" y="924.0" text-anchor="middle" font-family="'Segoe UI', system-ui, sans-serif" font-size="13" fill="#8b949e">0</text>
<text x="1666.4" y="968.0" text-anchor="middle" font-family="'Segoe UI', system-ui, sans-serif" font-size="14" fill="#8b949e">#26</text>
<rect x="1711.0" y="340.0" width="33.8" height="600.0" rx="4" fill="#d29922" opacity="0.92"/>
<text x="1727.9" y="330.0" text-anchor="middle" font-family="'Segoe UI', system-ui, sans-serif" font-size="16" font-weight="700" fill="#f0f6fc">5</text>
<text x="1727.9" y="968.0" text-anchor="middle" font-family="'Segoe UI', system-ui, sans-serif" font-size="14" fill="#8b949e">#27</text>
<rect x="1772.4" y="700.0" width="33.8" height="240.0" rx="4" fill="#f85149" opacity="0.92"/>
<text x="1789.3" y="690.0" text-anchor="middle" font-family="'Segoe UI', system-ui, sans-serif" font-size="16" font-weight="700" fill="#f0f6fc">2</text>
<text x="1789.3" y="968.0" text-anchor="middle" font-family="'Segoe UI', system-ui, sans-serif" font-size="14" fill="#8b949e">#28</text>
<line x1="100" y1="940" x2="1820" y2="940" stroke="#30363d" stroke-width="2"/>
<text x="100" y="990" font-family="'Segoe UI', system-ui, sans-serif" font-size="16" font-weight="600" fill="#c9d1d9">Security checks selected</text>
<rect x="305" y="976" width="20" height="20" rx="4" fill="#30363d"/>
<text x="333" y="992" font-family="'Segoe UI', system-ui, sans-serif" font-size="15" fill="#c9d1d9">0 — none</text>
<rect x="439" y="976" width="20" height="20" rx="4" fill="#f85149"/>
<text x="467" y="992" font-family="'Segoe UI', system-ui, sans-serif" font-size="15" fill="#c9d1d9">1-2</text>
<rect x="528" y="976" width="20" height="20" rx="4" fill="#db6d28"/>
<text x="556" y="992" font-family="'Segoe UI', system-ui, sans-serif" font-size="15" fill="#c9d1d9">3-4</text>
<rect x="617" y="976" width="20" height="20" rx="4" fill="#d29922"/>
<text x="645" y="992" font-family="'Segoe UI', system-ui, sans-serif" font-size="15" fill="#c9d1d9">5-6</text>
<text x="1840" y="1048" text-anchor="end" font-family="'Segoe UI', system-ui, sans-serif" font-size="16" fill="#484f58">Source: survey/SURVEY_RESULTS.md · n=28</text>
</svg>
